<svg xmlns="http://www.w3.org/2000/svg" viewBox="0 0 50 50" width="16px" height="16px">
    <path fill="#fff" stroke="#000" stroke-width="2" d="M44.257,5.333l-12.412-3.3c-0.192-0.051-0.396-0.044-0.582,0.021l-25.588,8.8C5.271,10.993,5,11.373,5,11.8V36v1.2v1.065 v0.01c0,0.363,0.286,0.737,0.675,0.871l25.588,8.8C31.368,47.981,31.478,48,31.588,48c0.086,0,0.173-0.011,0.257-0.033l12.412-3.3 C44.695,44.55,45,44.153,45,43.7V6.3C45,5.847,44.695,5.45,44.257,5.333z M30,10.827v29.532L8.153,37.476l7.191-2.637 C15.738,34.695,16,34.32,16,33.9V13.715L30,10.827z"></path>
    <text fill="#000" font-size="16" x="5" y="30">O</text>
    <text fill="#fff" font-size="16" x="17" y="30">X</text>
    <text fill="#000" font-size="16" x="28" y="30">ml</text>
</svg>